<svg width="62" height="47" viewBox="0 0 62 47" fill="none" xmlns="http://www.w3.org/2000/svg">
<path fill-rule="evenodd" clip-rule="evenodd" d="M3.39986 1H37.7927C38.858 1 39.7212 1.8634 39.7212 2.92852V10.5787H53.6715C54.3934 10.5787 55.0549 10.9818 55.3859 11.6239L60.786 22.1026C60.9268 22.3757 61 22.6786 61 22.9859V38.543C61 39.6083 60.1366 40.4716 59.0715 40.4716H55.9899C55.1378 43.6519 52.2307 46 48.7856 46C45.3406 46 42.4335 43.6515 41.5814 40.4714H22.6899C21.8378 43.6518 18.9306 46 15.4855 46C12.0404 46 9.13335 43.6514 8.28125 40.4714H3.39986C2.33463 40.4714 1.47134 39.608 1.47134 38.5429V2.92863C1.47134 1.8634 2.33474 1 3.39986 1ZM52.4957 14.4358H39.7212V21.1214H55.9409L52.4957 14.4358ZM57.1429 24.9786V36.6144H55.99C55.138 33.434 52.2308 31.0858 48.7856 31.0858C45.3407 31.0858 42.4336 33.4343 41.5814 36.6143H39.7212V24.9786H57.1429ZM22.6899 36.6143H35.8641V4.85715H5.32838V36.6143H8.28122C9.13322 33.4343 12.04 31.0858 15.4855 31.0858C18.9312 31.0858 21.838 33.4339 22.6899 36.6143ZM48.7857 42.1436C50.7708 42.1436 52.3857 40.5287 52.3857 38.5436C52.3857 36.5585 50.7708 34.9429 48.7857 34.9429C46.8006 34.9429 45.1857 36.5585 45.1857 38.5436C45.1857 40.5287 46.8006 42.1436 48.7857 42.1436ZM15.4856 42.1436C17.4707 42.1436 19.0855 40.5287 19.0855 38.5436C19.0855 36.5585 17.4707 34.9429 15.4856 34.9429C13.5004 34.9429 11.8849 36.5585 11.8849 38.5436C11.8849 40.5287 13.5004 42.1436 15.4856 42.1436Z" fill="#3F3F3F"/>
<path d="M39.7212 10.5787V11.2787H39.0212V10.5787H39.7212ZM55.3859 11.6239L56.0081 11.3032L56.0082 11.3033L55.3859 11.6239ZM60.786 22.1026L60.1638 22.4233L60.1637 22.4232L60.786 22.1026ZM55.9899 40.4716L55.3138 40.2904L55.4528 39.7716H55.9899V40.4716ZM41.5814 40.4714V39.7714H42.1185L42.2575 40.2903L41.5814 40.4714ZM22.6899 40.4714L22.0137 40.2903L22.1527 39.7714H22.6899V40.4714ZM8.28125 40.4714V39.7714H8.81838L8.9574 40.2902L8.28125 40.4714ZM39.7212 14.4358H39.0212V13.7358H39.7212V14.4358ZM52.4957 14.4358V13.7358H52.9224L53.1179 14.1152L52.4957 14.4358ZM39.7212 21.1214V21.8214H39.0212V21.1214H39.7212ZM55.9409 21.1214L56.5631 20.8008L57.0891 21.8214H55.9409V21.1214ZM57.1429 24.9786V24.2786H57.8429V24.9786H57.1429ZM57.1429 36.6144H57.8429V37.3144H57.1429V36.6144ZM55.99 36.6144V37.3144H55.4528L55.3138 36.7956L55.99 36.6144ZM41.5814 36.6143L42.2575 36.7955L42.1185 37.3143H41.5814V36.6143ZM39.7212 36.6143V37.3143H39.0212V36.6143H39.7212ZM39.7212 24.9786H39.0212V24.2786H39.7212V24.9786ZM35.8641 36.6143H36.5641V37.3143H35.8641V36.6143ZM22.6899 36.6143V37.3143H22.1527L22.0137 36.7954L22.6899 36.6143ZM35.8641 4.85715V4.15715H36.5641V4.85715H35.8641ZM5.32838 4.85715H4.62838V4.15715H5.32838V4.85715ZM5.32838 36.6143V37.3143H4.62838V36.6143H5.32838ZM8.28122 36.6143L8.95737 36.7954L8.81836 37.3143H8.28122V36.6143ZM37.7927 1.7H3.39986V0.3H37.7927V1.7ZM39.0212 2.92852C39.0212 2.24997 38.4713 1.7 37.7927 1.7V0.3C39.2446 0.3 40.4212 1.47683 40.4212 2.92852H39.0212ZM39.0212 10.5787V2.92852H40.4212V10.5787H39.0212ZM53.6715 11.2787H39.7212V9.87869H53.6715V11.2787ZM54.7637 11.9447C54.5528 11.5354 54.1313 11.2787 53.6715 11.2787V9.87869C54.6554 9.87869 55.5571 10.4281 56.0081 11.3032L54.7637 11.9447ZM60.1637 22.4232L54.7637 11.9446L56.0082 11.3033L61.4082 21.7819L60.1637 22.4232ZM60.3 22.9859C60.3 22.7898 60.2533 22.5969 60.1638 22.4233L61.4081 21.7818C61.6002 22.1544 61.7 22.5673 61.7 22.9859H60.3ZM60.3 38.543V22.9859H61.7V38.543H60.3ZM59.0715 39.7716C59.75 39.7716 60.3 39.2217 60.3 38.543H61.7C61.7 39.9949 60.5232 41.1716 59.0715 41.1716V39.7716ZM55.9899 39.7716H59.0715V41.1716H55.9899V39.7716ZM48.7856 45.3C51.9053 45.3 54.5415 43.173 55.3138 40.2904L56.6661 40.6527C55.7342 44.1308 52.556 46.7 48.7856 46.7V45.3ZM42.2575 40.2903C43.0299 43.1726 45.666 45.3 48.7856 45.3V46.7C45.0152 46.7 41.8371 44.1303 40.9052 40.6526L42.2575 40.2903ZM22.6899 39.7714H41.5814V41.1714H22.6899V39.7714ZM15.4855 45.3C18.6053 45.3 21.2414 43.173 22.0137 40.2903L23.366 40.6526C22.4342 44.1307 19.256 46.7 15.4855 46.7V45.3ZM8.9574 40.2902C9.72974 43.1726 12.3658 45.3 15.4855 45.3V46.7C11.715 46.7 8.53696 44.1303 7.60511 40.6526L8.9574 40.2902ZM3.39986 39.7714H8.28125V41.1714H3.39986V39.7714ZM2.17134 38.5429C2.17134 39.2214 2.72125 39.7714 3.39986 39.7714V41.1714C1.948 41.1714 0.771343 39.9946 0.771343 38.5429H2.17134ZM2.17134 2.92863V38.5429H0.771343V2.92863H2.17134ZM3.39986 1.7C2.72137 1.7 2.17134 2.24997 2.17134 2.92863H0.771343C0.771343 1.47683 1.94811 0.3 3.39986 0.3V1.7ZM39.7212 13.7358H52.4957V15.1358H39.7212V13.7358ZM39.0212 21.1214V14.4358H40.4212V21.1214H39.0212ZM55.9409 21.8214H39.7212V20.4214H55.9409V21.8214ZM53.1179 14.1152L56.5631 20.8008L55.3187 21.4421L51.8734 14.7565L53.1179 14.1152ZM57.8429 24.9786V36.6144H56.4429V24.9786H57.8429ZM57.1429 37.3144H55.99V35.9144H57.1429V37.3144ZM55.3138 36.7956C54.5416 33.9129 51.9055 31.7858 48.7856 31.7858V30.3858C52.5562 30.3858 55.7344 32.9551 56.6661 36.4333L55.3138 36.7956ZM48.7856 31.7858C45.6661 31.7858 43.0299 33.9132 42.2575 36.7955L40.9052 36.4331C41.8372 32.9555 45.0153 30.3858 48.7856 30.3858V31.7858ZM41.5814 37.3143H39.7212V35.9143H41.5814V37.3143ZM39.0212 36.6143V24.9786H40.4212V36.6143H39.0212ZM39.7212 24.2786H57.1429V25.6786H39.7212V24.2786ZM35.8641 37.3143H22.6899V35.9143H35.8641V37.3143ZM36.5641 4.85715V36.6143H35.1641V4.85715H36.5641ZM5.32838 4.15715H35.8641V5.55715H5.32838V4.15715ZM4.62838 36.6143V4.85715H6.02838V36.6143H4.62838ZM8.28122 37.3143H5.32838V35.9142H8.28122V37.3143ZM15.4855 31.7858C12.3654 31.7858 9.72962 33.9131 8.95737 36.7954L7.60507 36.4331C8.53683 32.9555 11.7146 30.3858 15.4855 30.3858V31.7858ZM22.0137 36.7954C21.2416 33.9128 18.6058 31.7858 15.4855 31.7858V30.3858C19.2565 30.3858 22.4344 32.9551 23.3661 36.4332L22.0137 36.7954ZM53.0857 38.5436C53.0857 40.9153 51.1574 42.8436 48.7857 42.8436V41.4436C50.3842 41.4436 51.6857 40.1421 51.6857 38.5436H53.0857ZM48.7857 34.2429C51.1576 34.2429 53.0857 36.172 53.0857 38.5436H51.6857C51.6857 36.9449 50.3841 35.6429 48.7857 35.6429V34.2429ZM44.4857 38.5436C44.4857 36.172 46.4138 34.2429 48.7857 34.2429V35.6429C47.1873 35.6429 45.8857 36.9449 45.8857 38.5436H44.4857ZM48.7857 42.8436C46.414 42.8436 44.4857 40.9153 44.4857 38.5436H45.8857C45.8857 40.1421 47.1872 41.4436 48.7857 41.4436V42.8436ZM19.7855 38.5436C19.7855 40.9153 17.8573 42.8436 15.4856 42.8436V41.4436C17.0841 41.4436 18.3855 40.1421 18.3855 38.5436H19.7855ZM15.4856 34.2429C17.8575 34.2429 19.7855 36.172 19.7855 38.5436H18.3855C18.3855 36.9449 17.0839 35.6429 15.4856 35.6429V34.2429ZM11.1849 38.5436C11.1849 36.1719 13.1138 34.2429 15.4856 34.2429V35.6429C13.887 35.6429 12.5849 36.9451 12.5849 38.5436H11.1849ZM15.4856 42.8436C13.114 42.8436 11.1849 40.9155 11.1849 38.5436H12.5849C12.5849 40.142 13.8869 41.4436 15.4856 41.4436V42.8436Z" fill="white"/>
</svg>
