<svg width="36" height="45" viewBox="0 0 36 45" fill="none" xmlns="http://www.w3.org/2000/svg">
<path fill-rule="evenodd" clip-rule="evenodd" d="M33.7499 23.2845L34.8749 24.972C35.6111 26.0738 36 27.3594 36 28.6875C36 30.0157 35.6111 31.3011 34.8749 32.4031L28.1469 42.4951C27.101 44.064 25.352 45 23.4667 45H11.25C5.04709 45 0 39.9529 0 33.75V23.3208C0 19.604 1.39746 16.0599 3.93313 13.3419L16.0521 0.357011C16.2652 0.129621 16.563 0 16.8749 0H17.7341C20.362 0 22.5 2.13795 22.5 4.76591C22.5 5.50197 22.3264 6.23909 21.9968 6.89721L18.3845 14.1218C18.1308 14.6283 18.334 15.0556 18.434 15.216C18.5329 15.3765 18.824 15.75 19.3909 15.75H29.25C31.7318 15.75 33.75 17.7682 33.7499 20.25V23.2845ZM26.2749 41.2471L33.0029 31.155C33.4918 30.4222 33.75 29.5696 33.7499 28.6875C33.7499 27.8052 33.4917 26.9527 33.0029 26.2199L31.689 24.2489C31.5659 24.0644 31.5 23.8468 31.5 23.6249V20.2499C31.5 19.0096 30.4903 17.9999 29.25 17.9999H19.3908C18.212 17.9999 17.1386 17.4012 16.519 16.3992C15.9004 15.3973 15.8444 14.1691 16.3718 13.1155L19.9841 5.89088C20.1577 5.54367 20.25 5.15365 20.25 4.76584C20.25 3.3783 19.1217 2.25 17.7341 2.25H17.3639L5.57899 14.8777C3.43218 17.1772 2.25009 20.1764 2.25009 23.3207V33.7499C2.25009 38.7124 6.28753 42.7499 11.25 42.75H23.4668C24.5973 42.75 25.6475 42.1886 26.2749 41.2471Z" fill="#3F3F3F"/>
</svg>
