<svg width="46" height="45" viewBox="0 0 46 45" fill="none" xmlns="http://www.w3.org/2000/svg">
<path fill-rule="evenodd" clip-rule="evenodd" d="M40.1579 0H23.079C22.7295 0 22.3941 0.139053 22.1469 0.386259L1.41628 21.1162C-0.472094 23.0052 -0.472094 26.0785 1.41628 27.9668L17.0352 43.5854C17.9471 44.4973 19.1636 44.9997 20.46 45H20.4604C21.7572 45 22.9736 44.4973 23.8859 43.5851L44.6158 22.8548C44.863 22.6076 45.0021 22.2722 45.0021 21.9227L45.0024 4.84386C45.0021 2.17301 42.8287 0 40.1579 0ZM42.3651 21.3768L22.0211 41.7207C21.607 42.1352 21.0525 42.3631 20.4603 42.3631C19.8677 42.3631 19.3135 42.1352 18.8995 41.7211L3.28052 26.1025C2.42011 25.2421 2.42011 23.8413 3.28052 22.9805L23.6249 2.63686H40.1578C41.3749 2.63686 42.3654 3.62706 42.3654 4.8442L42.3651 21.3768ZM33.3813 7.47788C32.2747 7.47788 31.2344 7.90911 30.4519 8.69159C29.6695 9.47372 29.2386 10.514 29.2386 11.6206C29.2386 12.7272 29.6695 13.7675 30.4519 14.55C31.2344 15.3325 32.2747 15.7634 33.3813 15.7634C34.4876 15.7634 35.5279 15.3325 36.3104 14.55C37.0928 13.7675 37.5237 12.7272 37.5237 11.6206C37.5237 10.514 37.0928 9.47372 36.3107 8.69159C35.5282 7.90911 34.4879 7.47788 33.3813 7.47788ZM34.4461 12.6853C34.1618 12.9699 33.7834 13.1265 33.3814 13.1265C32.979 13.1265 32.6009 12.9699 32.3167 12.6853C32.032 12.401 31.8755 12.0227 31.8755 11.6206C31.8755 11.2186 32.032 10.8402 32.3167 10.5559C32.6009 10.2713 32.9793 10.1147 33.3814 10.1147C33.7834 10.1147 34.1614 10.2713 34.4461 10.5559C34.7307 10.8402 34.8872 11.2186 34.8872 11.6206C34.8872 12.0227 34.7303 12.401 34.4461 12.6853Z" fill="#3F3F3F"/>
</svg>
