<svg width="40" height="40" viewBox="0 0 40 40" fill="none" xmlns="http://www.w3.org/2000/svg">
<path fill-rule="evenodd" clip-rule="evenodd" d="M0 0H40V40H0V0ZM9.6929 12.1173C12.7334 14.6923 18.0686 19.2225 19.6367 20.635C19.8472 20.8257 20.073 20.9226 20.3074 20.9226C20.5413 20.9226 20.7667 20.8266 20.9767 20.6368C22.5461 19.2229 27.8813 14.6923 30.9219 12.1173C31.1112 11.9573 31.14 11.6761 30.9868 11.4804C30.6325 11.0284 30.1043 10.7692 29.5381 10.7692H11.0766C10.5105 10.7692 9.98224 11.0284 9.628 11.4805C9.47474 11.6761 9.5036 11.9573 9.6929 12.1173ZM30.6239 13.5795C30.76 13.4632 30.9525 13.4367 31.1161 13.5128C31.2792 13.5881 31.3838 13.7517 31.3839 13.9315V24.4725C31.3839 24.6456 31.287 24.8043 31.1328 24.8832C31.0665 24.9174 30.9944 24.9341 30.9223 24.9341C30.8272 24.9341 30.7326 24.9048 30.6528 24.8471C28.6521 23.4075 25.8815 21.3819 24.043 19.9095C23.9357 19.8238 23.8721 19.6945 23.8699 19.5575C23.8676 19.42 23.9262 19.2888 24.0303 19.1996C26.009 17.4977 28.6326 15.2675 30.6239 13.5795ZM9.96184 24.8472C11.963 23.4075 14.7341 21.382 16.5721 19.9095C16.6794 19.8239 16.7429 19.6945 16.7452 19.5575C16.7474 19.42 16.6889 19.2889 16.5848 19.1996C14.6061 17.4977 11.9819 15.2675 9.9907 13.5796C9.85367 13.4633 9.66077 13.4376 9.49851 13.5129C9.33534 13.5882 9.23076 13.7518 9.23076 13.9316V24.4726C9.23076 24.6457 9.32769 24.8044 9.48181 24.8832C9.54806 24.9175 9.62018 24.9342 9.69232 24.9342C9.78742 24.9342 9.88205 24.9049 9.96184 24.8472ZM23.2028 20.4188C25.3275 22.1433 28.8868 24.7205 30.8191 26.1028C30.9268 26.1804 30.9962 26.3003 31.0097 26.4323C31.0228 26.5644 30.9786 26.6955 30.8885 26.7924C30.5383 27.1688 30.0466 27.3847 29.5386 27.3847H11.077C10.5691 27.3847 10.0769 27.1688 9.72752 26.7924C9.63691 26.695 9.59321 26.5639 9.60628 26.4318C9.61978 26.2998 9.68918 26.1803 9.79692 26.1028C11.7323 24.7177 15.2957 22.1373 17.4132 20.4187C17.5868 20.2768 17.8378 20.2813 18.0068 20.4291C18.4238 20.7915 18.7726 21.0989 19.0191 21.3211C19.7809 22.008 20.8356 22.008 21.5955 21.322C21.8429 21.0994 22.1918 20.7929 22.6087 20.4292C22.7791 20.2822 23.0297 20.2777 23.2028 20.4188Z" fill="#43BDD8"/>
</svg>
