<svg width="40" height="40" viewBox="0 0 40 40" fill="none" xmlns="http://www.w3.org/2000/svg">
<path fill-rule="evenodd" clip-rule="evenodd" d="M40 0H0V40H40V0ZM16.1539 9.23071H24.4616C28.2846 9.23071 31.3847 12.3309 31.3847 16.1538V24.4615C31.3847 28.2844 28.2846 31.3846 24.4616 31.3846H16.1539C12.331 31.3846 9.23086 28.2844 9.23086 24.4615V16.1538C9.23086 12.3309 12.331 9.23071 16.1539 9.23071ZM24.4616 29.3076C27.1339 29.3076 29.3078 27.1338 29.3078 24.4615V16.1538C29.3078 13.4815 27.1339 11.3076 24.4616 11.3076H16.1539C13.4816 11.3076 11.3078 13.4815 11.3078 16.1538V24.4615C11.3078 27.1338 13.4816 29.3076 16.1539 29.3076H24.4616ZM20.3078 14.7692C17.2492 14.7692 14.7693 17.249 14.7693 20.3076C14.7693 23.3662 17.2492 25.8461 20.3078 25.8461C23.3664 25.8461 25.8462 23.3662 25.8462 20.3076C25.8462 17.249 23.3664 14.7692 20.3078 14.7692ZM20.3078 23.7692C18.3998 23.7692 16.8462 22.2156 16.8462 20.3076C16.8462 18.3982 18.3998 16.8461 20.3078 16.8461C22.2158 16.8461 23.7693 18.3982 23.7693 20.3076C23.7693 22.2156 22.2158 23.7692 20.3078 23.7692ZM26.9998 14.3538C26.9998 14.7614 26.6694 15.0918 26.2618 15.0918C25.8542 15.0918 25.5238 14.7614 25.5238 14.3538C25.5238 13.9462 25.8542 13.6158 26.2618 13.6158C26.6694 13.6158 26.9998 13.9462 26.9998 14.3538Z" fill="url(#paint0_linear)"/>
<defs>
<linearGradient id="paint0_linear" x1="40" y1="0" x2="0" y2="40" gradientUnits="userSpaceOnUse">
<stop stop-color="#F436B4"/>
<stop offset="1" stop-color="#E79B29"/>
</linearGradient>
</defs>
</svg>
