<svg width="22" height="18" viewBox="0 0 22 18" fill="none" xmlns="http://www.w3.org/2000/svg">
<path d="M21.0841 6.28038H17.4055L13.2214 0.194527C13.0811 -0.00961338 12.8018 -0.0613844 12.5976 0.0789147L11.8581 0.587162C11.6539 0.727503 11.6022 1.0068 11.7425 1.21098L15.2277 6.28038H6.30496L9.79019 1.21098C9.93053 1.0068 9.8788 0.727503 9.67458 0.587162L8.93502 0.0789147C8.73088 -0.0613844 8.45159 -0.00961338 8.31129 0.194527L4.12726 6.28038H0.448612C0.20086 6.28038 0 6.4812 0 6.72899V7.62617C0 7.87392 0.20086 8.07478 0.448612 8.07478H1.01776L3.76011 16.6937C3.99844 17.4415 4.68534 17.944 5.46994 17.944H16.0628C16.8474 17.944 17.5344 17.4415 17.7726 16.6932L20.515 8.07478H21.0841C21.3319 8.07478 21.5328 7.87392 21.5328 7.62617V6.72899C21.5327 6.4812 21.3319 6.28038 21.0841 6.28038Z" fill="white"/>
</svg>
