<svg width="45" height="45" viewBox="0 0 45 45" fill="none" xmlns="http://www.w3.org/2000/svg">
<path d="M43.7927 9.5768C43.7927 9.00591 43.4479 8.49152 42.9199 8.27453L23.0349 0.10559C22.6921 -0.0351965 22.3077 -0.0351965 21.9649 0.10559L2.07991 8.27453C1.55187 8.49143 1.20703 9.00591 1.20703 9.5768V35.4232C1.20703 35.9941 1.55178 36.5085 2.07991 36.7255L21.9649 44.8944C22.304 45.0337 22.6852 45.0367 23.0331 44.8943C23.0501 44.8887 22.2972 45.1975 42.9199 36.7255C43.448 36.5086 43.7927 35.9941 43.7927 35.4232V9.5768ZM22.4999 16.3421L15.173 13.3322L31.0071 6.42478L38.824 9.63602L22.4999 16.3421ZM4.02275 11.7956L10.3441 14.3925V21.719C10.3441 22.4965 10.9745 23.1269 11.752 23.1269C12.5295 23.1269 13.1599 22.4965 13.1599 21.719V15.5492L21.092 18.8078V41.4917L4.02275 34.4795V11.7956ZM22.4999 2.92985L27.3804 4.93482L11.5463 11.8422L6.17573 9.63593L22.4999 2.92985ZM23.9077 18.8078L40.977 11.7956V34.4795L23.9077 41.4917V18.8078Z" fill="#3F3F3F" stroke="white" stroke-width="1.00115"/>
</svg>
