<svg width="40" height="40" viewBox="0 0 40 40" fill="none" xmlns="http://www.w3.org/2000/svg">
<path fill-rule="evenodd" clip-rule="evenodd" d="M40 0H0V40H40V0ZM28.5224 11.3905C30.2873 12.9791 31.2658 16.4914 30.6049 22.0548C30.0265 26.9633 26.7174 27.8327 25.6067 28.1245L25.6066 28.1245C25.4977 28.1531 25.4099 28.1762 25.3479 28.197C25.0479 28.2967 22.4079 28.9797 18.9704 28.6816L18.6283 29.0906L18.6283 29.0906C16.8786 31.1838 16.5771 31.5445 15.9547 31.3428C15.3769 31.161 15.411 30.2563 15.411 30.2563L15.4156 28.0234H15.411C10.3886 26.5613 10.4587 21.1714 10.5178 18.2942C10.5769 15.4179 11.1159 13.0945 12.6464 11.5114C16.0544 8.27512 25.6747 8.67666 28.5233 11.3896L28.5224 11.3905ZM16.4569 30.5277C17.1335 29.8234 19.3092 27.1105 19.3092 27.1105C22.2243 27.3053 24.5458 26.708 24.7959 26.625C24.8542 26.6056 24.9383 26.5853 25.0429 26.56C25.989 26.3316 28.6177 25.6968 29.1039 21.6459C29.1034 21.6257 29.1105 21.5544 29.1219 21.4395C29.2376 20.2744 29.7976 14.6328 27.4064 12.513C25.2575 10.4933 16.8233 9.8665 13.8335 12.6699C12.5375 13.9945 12.0981 15.9616 12.0519 18.3634C12.0504 18.4458 12.0485 18.5307 12.0467 18.618L12.0467 18.6182L12.0467 18.6183L12.0467 18.6185C11.9939 21.0758 11.9011 25.3958 16.0129 26.5742C16.0129 26.5742 15.9963 29.9831 15.9963 30.2813C15.9926 30.7354 16.2353 30.7567 16.4569 30.5277ZM20.5128 13.197C20.1574 13.197 20.1574 13.7509 20.5128 13.7555C23.2701 13.7767 25.5408 15.6986 25.5658 19.2238C25.5658 19.5958 26.1104 19.5912 26.1058 19.2192H26.1048C26.0753 15.4207 23.5959 13.2183 20.5128 13.197ZM24.6797 18.6524C24.6751 19.0244 24.1314 19.0069 24.1397 18.6395C24.1822 16.8053 23.0735 15.369 20.9689 15.2093C20.6144 15.1835 20.6514 14.625 21.0068 14.6509C23.4335 14.8327 24.7249 16.5579 24.6797 18.6524ZM23.558 21.022C23.102 20.758 22.6377 20.9223 22.4457 21.1817L22.0442 21.7014C21.8402 21.9654 21.4589 21.9303 21.4589 21.9303C18.6768 21.1946 17.9328 18.2832 17.9328 18.2832C17.9328 18.2832 17.8986 17.8891 18.1534 17.6777L18.6556 17.2623C18.9066 17.0629 19.0654 16.5829 18.8097 16.1112C18.2947 15.1806 17.9071 14.7098 17.6475 14.3944L17.6475 14.3944C17.5628 14.2915 17.4918 14.2051 17.4343 14.1247C17.1888 13.8174 16.8196 13.7481 16.4356 13.9558H16.4273C15.6288 14.4229 14.7546 15.2971 15.0343 16.1971C15.1171 16.3616 15.2119 16.5886 15.3266 16.8633L15.3266 16.8633C15.8734 18.1728 16.8732 20.5672 19.1836 22.4564C20.4971 23.5374 22.5759 24.6451 23.4583 24.9007L23.4666 24.9137C24.3362 25.2035 25.1817 24.2952 25.6331 23.4727V23.4663C25.8334 23.0684 25.7669 22.6918 25.4743 22.4454C24.9556 21.9395 24.1728 21.3811 23.558 21.022ZM22.7505 18.178C22.7043 17.2263 22.2742 16.7629 21.3871 16.7113C21.028 16.69 21.0612 16.1316 21.4166 16.1528C22.5834 16.2174 23.2314 16.9097 23.2905 18.1522C23.3071 18.5242 22.7671 18.55 22.7505 18.178Z" fill="#8E24AA"/>
</svg>
